# xmcd CD database file
#
# Track frame offsets:
#	150
#	28630
#	50929
#	78434
#	99281
#	119507
#	139774
#	162777
#
# Disc length: 2603 seconds
#
# Revision: 0
# Processed by: cddbd v1.5.2PL0 Copyright (c) Steve Scherf et al.
# Submitted via: CDex 1.70beta2
#
DISCID=650a2908
DTITLE=Jazz Q - Zvesti
DYEAR=1977
DGENRE=Jazz
TTITLE0=Klekanice
TTITLE1=Vzkriseni
TTITLE2=Slepej
TTITLE3=Jinotaj
TTITLE4=Trist
TTITLE5=Korouhvicka
TTITLE6=Krupej
TTITLE7=Vetroplach
EXTD=YEAR: 1977
EXTT0=
EXTT1=
EXTT2=
EXTT3=
EXTT4=
EXTT5=
EXTT6=
EXTT7=
PLAYORDER=
